<?xml version="1.0" encoding="UTF-8"?>
<svg
  id="Layer_1"
  xmlns="http://www.w3.org/2000/svg"
  version="1.1"
  viewBox="0 0 1800 500"
>
  <!-- Generator: Adobe Illustrator 29.5.1, SVG Export Plug-In . SVG Version: 2.1.0 Build 141)  -->
  <defs>
    <style>
    .st0 {
      fill: #08a6e0;
    }

    .st1 {
      fill: #006fa9;
    }

    .st2 {
      fill: #0071bb;
    }

    .st3 {
      fill: #002a53;
    }
    </style>
  </defs>
  <path
    class="st3"
    d="M421.2,445.7c0,6.2-5,11.2-11.2,11.2s-11.2-5-11.2-11.2,5-11.2,11.2-11.2,11.2,5,11.2,11.2"
  />
  <g>
    <rect class="st2" x="292.5" y="348.4" width="39.2" height="39.2" />
    <rect class="st1" x="292.5" y="230.9" width="39.2" height="39.2" />
    <rect class="st2" x="292.5" y="113.4" width="39.2" height="39.2" />
    <path
      class="st2"
      d="M292.5,74.2h39.2v-19.6c0-10.8-8.8-19.6-19.6-19.6s-19.6,8.8-19.6,19.6v19.6Z"
    />
    <path
      class="st2"
      d="M463.1,348.4h0c10.8,0,19.6-8.8,19.6-19.6v-19.6h-39.2v19.6c0,10.8,8.8,19.6,19.6,19.6"
    />
    <rect class="st2" x="443.6" y="191.7" width="39.2" height="39.2" />
    <path
      class="st1"
      d="M443.6,152.6h39.2v-19.6c0-10.8-8.8-19.6-19.6-19.6s-19.6,8.8-19.6,19.6v19.6Z"
    />
    <rect class="st2" x="342.8" y="270.1" width="39.2" height="39.2" />
    <rect class="st2" x="342.8" y="152.6" width="39.2" height="39.2" />
    <rect class="st2" x="393.2" y="211.3" width="39.2" height="39.2" />
    <path
      class="st2"
      d="M393.2,133h39.2v-19.6c0-10.8-8.8-19.6-19.6-19.6s-19.6,8.8-19.6,19.6v19.6Z"
    />
    <rect class="st3" x="292.5" y="309.2" width="39.2" height="39.2" />
    <rect class="st3" x="292.5" y="191.7" width="39.2" height="39.2" />
    <rect class="st3" x="292.5" y="74.2" width="39.2" height="39.2" />
    <rect class="st3" x="443.6" y="270.1" width="39.2" height="39.2" />
    <rect class="st3" x="443.6" y="152.6" width="39.2" height="39.2" />
    <path
      class="st3"
      d="M362.4,387.6h0c10.8,0,19.6-8.8,19.6-19.6v-19.6h-39.2v19.6c0,10.8,8.8,19.6,19.6,19.6"
    />
    <rect class="st3" x="342.8" y="230.9" width="39.2" height="39.2" />
    <rect class="st3" x="393.2" y="172.1" width="39.2" height="39.2" />
    <rect class="st2" x="393.2" y="289.6" width="39.2" height="39.2" />
    <rect class="st3" x="393.2" y="250.5" width="39.2" height="39.2" />
    <rect class="st3" x="342.8" y="113.4" width="39.2" height="39.2" />
    <path
      class="st0"
      d="M312.1,426.7h0c10.8,0,19.6-8.8,19.6-19.6v-19.6h-39.2v19.6c0,10.8,8.8,19.6,19.6,19.6"
    />
    <rect class="st0" x="292.5" y="270.1" width="39.2" height="39.2" />
    <rect class="st0" x="292.5" y="152.6" width="39.2" height="39.2" />
    <rect class="st0" x="443.6" y="230.9" width="39.2" height="39.2" />
    <rect class="st0" x="342.8" y="309.2" width="39.2" height="39.2" />
    <path
      class="st3"
      d="M563.9,270.1h0c10.8,0,19.6-8.8,19.6-19.6v-19.6h-39.2v19.6c0,10.8,8.8,19.6,19.6,19.6"
    />
    <path
      class="st2"
      d="M544.3,230.9h39.2v-19.6c0-10.8-8.8-19.6-19.6-19.6s-19.6,8.8-19.6,19.6v19.6Z"
    />
    <g>
      <rect class="st2" x="493.9" y="230.9" width="39.2" height="39.2" />
      <path
        class="st3"
        d="M513.5,152.6h0c-10.8,0-19.6,8.8-19.6,19.6v19.6h39.2v-19.6c0-10.8-8.8-19.6-19.6-19.6"
      />
      <path
        class="st3"
        d="M533.1,270.1h-39.2v19.6c0,10.8,8.8,19.6,19.6,19.6s19.6-8.8,19.6-19.6v-19.6Z"
      />
      <rect class="st0" x="493.9" y="191.7" width="39.2" height="39.2" />
    </g>
    <rect class="st0" x="342.8" y="191.7" width="39.2" height="39.2" />
    <path
      class="st3"
      d="M412.8,368h0c10.8,0,19.6-8.8,19.6-19.6v-19.6h-39.2v19.6c0,10.8,8.8,19.6,19.6,19.6"
    />
    <rect class="st0" x="393.2" y="133" width="39.2" height="39.2" />
    <path
      class="st0"
      d="M342.8,113.4h39.2v-19.6c0-10.8-8.8-19.6-19.6-19.6s-19.6,8.8-19.6,19.6v19.6Z"
    />
    <path
      class="st3"
      d="M482.7,88.2c0,10.8-8.8,19.6-19.6,19.6s-19.6-8.8-19.6-19.6,8.8-19.6,19.6-19.6,19.6,8.8,19.6,19.6"
    />
    <path
      class="st1"
      d="M432.4,398.1c0,10.8-8.8,19.6-19.6,19.6s-19.6-8.8-19.6-19.6,8.8-19.6,19.6-19.6,19.6,8.8,19.6,19.6"
    />
    <path
      class="st0"
      d="M521.9,85.4c0,6.2-5,11.2-11.2,11.2s-11.2-5-11.2-11.2,5-11.2,11.2-11.2,11.2,5,11.2,11.2"
    />
    <path
      class="st1"
      d="M505.1,49c0,7.7-6.3,14-14,14s-14-6.3-14-14,6.3-14,14-14,14,6.3,14,14"
    />
    <path
      class="st0"
      d="M465.9,426.1c0,7.7-6.3,14-14,14s-14-6.3-14-14,6.3-14,14-14,14,6.3,14,14"
    />
    <path
      class="st2"
      d="M1297.6,143.3h0c0,10.3-8.4,18.7-18.7,18.7h-106.3v37.1h87.5c10.3,0,18.7,8.4,18.7,18.7s-8.4,18.7-18.7,18.7h-87.5v41.9h106.3c10.3,0,18.7,8.4,18.7,18.7s-8.4,18.7-18.7,18.7h-143.7V124.5h143.7c10.3,0,18.7,8.4,18.7,18.7"
    />
    <path
      class="st2"
      d="M1464.5,162h-69.5c-20.7,0-37.5,16.8-37.5,37.5v41.5c0,20.7,16.8,37.5,37.5,37.5h35.1c22,0,39.8-17.8,39.8-39.8v-2h-37.5c-10.3,0-18.7-8.4-18.7-18.7s8.4-18.7,18.7-18.7h74.9v39.5c0,42.7-34.6,77.3-77.3,77.3h-35.1c-41.4,0-74.9-33.6-74.9-74.9v-41.5c0-41.4,33.6-74.9,74.9-74.9h69.5c10.3,0,18.7,8.4,18.7,18.7s-8.4,18.7-18.7,18.7"
    />
    <path
      class="st2"
      d="M660.2,199.5v97.7c0,10.3-8.4,18.7-18.7,18.7s-18.7-8.4-18.7-18.7v-97.7c0-41.4,33.6-74.9,74.9-74.9s43.7,6.2,56.2,18.7c12.5-12.5,31.2-18.7,56.2-18.7,41.4,0,75,33.6,75,74.9v97.7c0,10.3-8.4,18.7-18.7,18.7s-18.7-8.4-18.7-18.7v-97.7c0-20.7-16.7-37.5-37.4-37.5-25,0-37.5,12.5-37.5,37.5v97.7c0,10.3-8.4,18.7-18.7,18.7s-18.7-8.4-18.7-18.7v-97.7c0-25-12.5-37.5-37.5-37.5-20.7,0-37.4,16.8-37.4,37.5"
    />
    <path
      class="st2"
      d="M1029.1,124.5c50.4,0,75.3,25.4,74.9,76.2-.3,40.9-34,73.7-74.9,73.7h-74.9v22.8c0,10.3-8.4,18.7-18.7,18.7s-18.7-8.4-18.7-18.7V124.5h112.4ZM1066.6,199.5c0-25-12.5-37.5-37.5-37.5h-74.9v74.9h74.9c25,0,37.5-12.5,37.5-37.5"
    />
  </g>
</svg>
